<?xml version="1.0" encoding="UTF-8"?>
<svg version="1.1" xmlns="http://www.w3.org/2000/svg" width="200" height="200">
<path d="M0 0 C66 0 132 0 200 0 C200 66 200 132 200 200 C134 200 68 200 0 200 C0 134 0 68 0 0 Z " fill="#8980FE" transform="translate(0,0)"/>
<path d="M0 0 C5.70847794 -1.10751309 11.39668875 -1.97137681 17 0 C22.06241141 4.054863 25.20954802 10.02682916 28.48583984 15.52734375 C30.836966 19.36678357 33.50146492 22.95339059 36.1875 26.5625 C36.64560059 27.19873291 37.10370117 27.83496582 37.57568359 28.49047852 C39.83005854 31.74863428 39.83005854 31.74863428 43 34 C43.21527344 33.3296875 43.43054688 32.659375 43.65234375 31.96875 C45.78833282 27.26338277 49.04030592 23.44689277 52.21020508 19.39257812 C54.79593326 16.04907577 57.20451063 12.79785803 59.1953125 9.0625 C61.12431437 5.54056749 62.90992259 2.65817898 66 0 C71.58546142 -1.49186045 77.34791501 -0.7592353 83 0 C81.43979707 4.79009671 78.73156865 8.26155032 75.6875 12.1875 C74.60540519 13.60703294 73.5247296 15.02764861 72.4453125 16.44921875 C71.88231445 17.18962402 71.31931641 17.9300293 70.73925781 18.69287109 C67.79867088 22.59356544 64.9265274 26.54290806 62.0625 30.5 C61.53164795 31.22856201 61.0007959 31.95712402 60.45385742 32.70776367 C57.09625971 37.35359989 53.97367709 42.09965716 51 47 C51.87398437 48.11181641 51.87398437 48.11181641 52.765625 49.24609375 C58.24805329 56.27127033 63.48061072 63.43615798 68.58447266 70.74072266 C72.35183282 76.12109463 76.25052876 81.37843387 80.2578125 86.58203125 C81.76540514 88.67440759 82.94047558 90.65703106 84 93 C78.2938286 94.04556195 72.61348316 94.85604138 67 93 C61.99379483 89.24823506 58.78893514 83.61026618 55.50976562 78.37890625 C53.12208365 74.61668549 50.49985701 71.03603768 47.875 67.4375 C47.42527832 66.789021 46.97555664 66.14054199 46.51220703 65.47241211 C45.41485407 63.92679405 44.21537644 62.45464044 43 61 C42.01 61 41.02 61 40 61 C38.53021687 62.45468589 38.53021687 62.45468589 37.21484375 64.4453125 C36.68987305 65.18668457 36.16490234 65.92805664 35.62402344 66.69189453 C35.0674707 67.49481934 34.51091797 68.29774414 33.9375 69.125 C33.35387695 69.93437012 32.77025391 70.74374023 32.16894531 71.57763672 C29.42813781 75.39899819 26.82152311 79.20982615 24.51953125 83.3125 C19.24865414 92.37016619 19.24865414 92.37016619 14.91503906 93.58398438 C9.86329551 94.18533164 5.01442464 93.73296694 0 93 C1.58465821 87.95257014 4.64161078 84.33314824 7.875 80.25 C12.43996758 74.38838332 16.87122468 68.46646241 21.125 62.375 C25.50942024 56.09803473 29.97350357 49.88969517 34.52392578 43.73193359 C36.40489949 41.18500309 38.24321847 38.6351723 40 36 C38.99582031 36.14824219 37.99164063 36.29648438 36.95703125 36.44921875 C32.41010418 36.82323747 28.23961695 36.85737444 24 35 C19.02173932 30.47740337 15.8915411 24.25586892 12.5390625 18.50292969 C10.2211057 14.73330831 7.49800671 11.34754487 4.6875 7.9375 C0 2.2461607 0 2.2461607 0 0 Z " fill="#FAF9FD" transform="translate(58,54)"/>
<path d="M0 0 C3.49406769 1.66762322 4.82670681 2.74006022 7 6 C7.8371159 10.70547252 7.6691347 14.02671316 4.9375 18 C1.42070506 20.39441358 -0.75226664 21 -5 21 C-8.64886208 19.42435501 -11.13562322 17.53250338 -13 14 C-13.49677002 10.64680233 -13.74097161 8.229464 -11.9453125 5.25 C-8.16402567 0.59610852 -5.91787738 -0.46414725 0 0 Z " fill="#E1E1FE" transform="translate(165,41)"/>
<path d="M0 0 C3.49406769 1.66762322 4.82670681 2.74006022 7 6 C7.8371159 10.70547252 7.6691347 14.02671316 4.9375 18 C1.42070506 20.39441358 -0.75226664 21 -5 21 C-8.64886208 19.42435501 -11.13562322 17.53250338 -13 14 C-13.49677002 10.64680233 -13.74097161 8.229464 -11.9453125 5.25 C-8.16402567 0.59610852 -5.91787738 -0.46414725 0 0 Z M-11 7 C-11.79153944 11.43262088 -11.50416232 13.24375652 -9 17 C-5.93307963 19.04461358 -5.33106293 19.32393649 -1.875 19.0625 C0.74404157 18.52386692 1.89138607 18.08824882 4 16.375 C5.43348212 12.97047997 5.51361669 10.65951893 5 7 C2.55401113 3.61878009 1.10703441 2.23063217 -3 1.375 C-7.10703441 2.23063217 -8.55401113 3.61878009 -11 7 Z " fill="#E5E5FD" transform="translate(165,41)"/>
<path d="M0 0 C4.10703441 0.85563217 5.55401113 2.24378009 8 5.625 C8.5 9.25 8.5 9.25 8 12.625 C6.5 14.5625 6.5 14.5625 5 15.625 C2.21362367 11.4454355 3.20437488 9.47831323 4 4.625 C1.36 3.965 -1.28 3.305 -4 2.625 C-4 6.915 -4 11.205 -4 15.625 C-4.99 15.295 -5.98 14.965 -7 14.625 C-8.56935594 11.48628812 -8.35201103 9.08644178 -8 5.625 C-5.55401113 2.24378009 -4.10703441 0.85563217 0 0 Z " fill="#8F86EB" transform="translate(162,42.375)"/>
<path d="M0 0 C3.66186662 3.37277189 5.08905121 5.22262802 7 10 C12.61 10 18.22 10 24 10 C16.90178571 21.38392857 16.90178571 21.38392857 14 24 C14 15.625 14 15.625 15 12 C13.39125 12.12375 13.39125 12.12375 11.75 12.25 C8 12 8 12 5.8125 10.375 C0 2.75862069 0 2.75862069 0 0 Z " fill="#8E86EC" transform="translate(75,79)"/>
<path d="M0 0 C6 0 6 0 9 2 C9 3.32 9 4.64 9 6 C8.34 6 7.68 6 7 6 C6.67 5.01 6.34 4.02 6 3 C3.98491642 2.26676204 3.98491642 2.26676204 2 2 C2 3.65 2 5.3 2 7 C2.99 7.33 3.98 7.66 5 8 C4.01 8 3.02 8 2 8 C2 9.65 2 11.3 2 13 C1.34 13 0.68 13 0 13 C0 8.71 0 4.42 0 0 Z " fill="#E5E3FE" transform="translate(158,45)"/>
<path d="M0 0 C0.99 0 1.98 0 3 0 C3.28875 0.61875 3.5775 1.2375 3.875 1.875 C4.93720042 4.13325765 4.93720042 4.13325765 7 6 C4.36 6.33 1.72 6.66 -1 7 C-1.33 6.34 -1.66 5.68 -2 5 C-1.34 5 -0.68 5 0 5 C0 3.35 0 1.7 0 0 Z " fill="#948EE6" transform="translate(160,53)"/>
<path d="M0 0 C3.67301925 0.52471704 4.76482915 1.60959742 7.0625 4.4375 C4.0625 4.4375 4.0625 4.4375 2.0625 3.4375 C0.68907169 3.3685528 -0.68752102 3.35282292 -2.0625 3.375 C-3.980625 3.4059375 -3.980625 3.4059375 -5.9375 3.4375 C-4.06535559 0.94130746 -3.1479846 0.46884877 0 0 Z " fill="#9791DB" transform="translate(161.9375,42.5625)"/>
<path d="M0 0 C1.65 1.32 3.3 2.64 5 4 C4.67 4.66 4.34 5.32 4 6 C1.69 5.67 -0.62 5.34 -3 5 C-1.125 1.125 -1.125 1.125 0 0 Z " fill="#9289EB" transform="translate(99,113)"/>
<path d="M0 0 C-1.1858237 3.37503669 -2.27573689 5.64722731 -5 8 C-5 5.69 -5 3.38 -5 1 C-3 0 -3 0 0 0 Z " fill="#8E86F0" transform="translate(72,125)"/>
<path d="M0 0 C4 1 4 1 5.8125 3.9375 C6.204375 4.948125 6.59625 5.95875 7 7 C6.67 7.66 6.34 8.32 6 9 C4.02 6.03 2.04 3.06 0 0 Z " fill="#928BE7" transform="translate(79,60)"/>
<path d="M0 0 C0.66 0.33 1.32 0.66 2 1 C0.95125002 3.62187494 0.35068687 4.79371361 -2.125 6.25 C-2.74375 6.4975 -3.3625 6.745 -4 7 C-2.92598892 4.08482708 -2.22189824 2.22189824 0 0 Z " fill="#8F87EB" transform="translate(141,55)"/>
<path d="M0 0 C2.475 0.495 2.475 0.495 5 1 C4.67 1.99 4.34 2.98 4 4 C2.68 4 1.36 4 0 4 C0 2.68 0 1.36 0 0 Z " fill="#938DDF" transform="translate(160,47)"/>
<path d="M0 0 C0.99 0 1.98 0 3 0 C3 0.99 3 1.98 3 3 C3.66 3 4.32 3 5 3 C5.66 4.32 6.32 5.64 7 7 C6.01 7 5.02 7 4 7 C2.02 3.535 2.02 3.535 0 0 Z " fill="#9189EA" transform="translate(136,138)"/>
<path d="M0 0 C0.99 0.33 1.98 0.66 3 1 C1.69593116 3.01920337 0.36176581 5.01924973 -1 7 C-1.33 7 -1.66 7 -2 7 C-2.125 4.625 -2.125 4.625 -2 2 C-1.34 1.34 -0.68 0.68 0 0 Z " fill="#918AE6" transform="translate(61,137)"/>
<path d="M0 0 C0.98120464 3.05263664 0.98120464 4.94736336 0 8 C-0.99 6.35 -1.98 4.7 -3 3 C-2.01 2.01 -1.02 1.02 0 0 Z " fill="#9189F3" transform="translate(123,113)"/>
</svg>
